<?xml version="1.0" encoding="UTF-8"?>
<svg xmlns="http://www.w3.org/2000/svg" xmlns:xlink="http://www.w3.org/1999/xlink" width="409.600006pt" height="409.600006pt" viewBox="0 0 409.600006 409.600006" version="1.1">
<g id="surface1">
<path style=" stroke:none;fill-rule:nonzero;fill:rgb(70%,70%,70%);fill-opacity:1;" d="M 391.105469 0 L 367.371094 23.734375 L 344.1875 0.546875 L 321.003906 23.734375 L 297.816406 0.546875 L 274.632812 23.734375 L 251.449219 0.546875 L 228.261719 23.734375 L 205.078125 0.546875 L 181.894531 23.734375 L 158.707031 0.546875 L 135.523438 23.734375 L 112.339844 0.546875 L 89.152344 23.734375 L 65.96875 0.546875 L 42.785156 23.734375 L 19.050781 0 L 15.457031 0 L 15.457031 409.601562 L 18.5 409.601562 L 42.234375 385.867188 L 65.421875 409.050781 L 88.605469 385.867188 L 111.789062 409.050781 L 134.972656 385.867188 L 158.160156 409.050781 L 181.34375 385.867188 L 204.527344 409.050781 L 227.714844 385.867188 L 250.898438 409.050781 L 274.082031 385.867188 L 297.269531 409.050781 L 320.453125 385.867188 L 343.636719 409.050781 L 366.824219 385.867188 L 390.558594 409.601562 L 394.144531 409.601562 L 394.144531 0 Z M 391.105469 0 "/>
<path style=" stroke:none;fill-rule:nonzero;fill:rgb(48%,48%,48%);fill-opacity:1;" d="M 355.503906 204.800781 C 355.503906 288.035156 288.039062 355.5 204.804688 355.5 C 121.570312 355.5 54.101562 288.035156 54.101562 204.800781 C 54.101562 121.566406 121.570312 54.097656 204.804688 54.097656 C 288.039062 54.097656 355.503906 121.566406 355.503906 204.800781 "/>
<path style=" stroke:none;fill-rule:nonzero;fill:rgb(70%,70%,70%);fill-opacity:1;" d="M 316.863281 204.800781 C 316.863281 266.6875 266.691406 316.859375 204.804688 316.859375 C 142.914062 316.859375 92.742188 266.6875 92.742188 204.800781 C 92.742188 142.910156 142.914062 92.738281 204.804688 92.738281 C 266.691406 92.738281 316.863281 142.910156 316.863281 204.800781 "/>
</g>
</svg>
