<?xml version="1.0" encoding="UTF-8"?>
<svg xmlns="http://www.w3.org/2000/svg" xmlns:xlink="http://www.w3.org/1999/xlink" width="376pt" height="376pt" viewBox="0 0 376 376" version="1.1">
<g id="surface1">
<path style=" stroke:none;fill-rule:nonzero;fill:rgb(73%,73%,73%);fill-opacity:1;" d="M 173.832031 122.0625 C 173.832031 122.0625 185.832031 122.0625 185.832031 122.0625 C 185.832031 118.75 188.519531 116.0625 191.832031 116.0625 L 216.164062 116.0625 C 219.472656 116.0625 222.164062 113.371094 222.164062 110.0625 C 222.164062 106.753906 219.472656 104.0625 216.164062 104.0625 L 159.832031 104.0625 C 156.523438 104.0625 153.832031 106.753906 153.832031 110.0625 C 153.832031 113.371094 156.523438 116.0625 159.832031 116.0625 L 167.832031 116.0625 C 171.148438 116.0625 173.832031 118.75 173.832031 122.0625 Z M 173.832031 122.0625 "/>
<path style=" stroke:none;fill-rule:nonzero;fill:rgb(67%,67%,67%);fill-opacity:1;" d="M 167.832031 128.0625 L 159.832031 128.0625 C 156.523438 128.0625 153.832031 130.753906 153.832031 134.0625 C 153.832031 137.371094 156.523438 140.0625 159.832031 140.0625 L 216.164062 140.0625 C 219.472656 140.0625 222.164062 137.371094 222.164062 134.0625 C 222.164062 130.753906 219.472656 128.0625 216.164062 128.0625 L 191.832031 128.0625 C 188.519531 128.0625 185.835938 125.378906 185.832031 122.0625 L 173.832031 122.0625 C 173.832031 125.375 171.148438 128.0625 167.832031 128.0625 Z M 167.832031 128.0625 "/>
<path style=" stroke:none;fill-rule:nonzero;fill:rgb(73%,73%,73%);fill-opacity:1;" d="M 159.832031 164.0625 L 216.164062 164.0625 C 219.472656 164.0625 222.164062 161.371094 222.164062 158.0625 C 222.164062 154.753906 219.472656 152.0625 216.164062 152.0625 L 159.832031 152.0625 C 156.523438 152.0625 153.832031 154.753906 153.832031 158.0625 C 153.832031 161.371094 156.527344 164.0625 159.832031 164.0625 Z M 159.832031 164.0625 "/>
<path style=" stroke:none;fill-rule:nonzero;fill:rgb(67%,67%,67%);fill-opacity:1;" d="M 212.761719 176.0625 L 191.707031 176.0625 C 194.121094 180.007812 196.527344 184.011719 198.90625 188.058594 C 201.800781 186.386719 205.46875 187.367188 207.128906 190.234375 C 222.496094 216.828125 248.28125 265.371094 248.28125 291.71875 C 248.28125 324.957031 221.238281 352 188 352 C 154.761719 352 127.71875 324.957031 127.71875 291.71875 C 127.71875 261.863281 160.65625 203.570312 177.277344 176.0625 L 163.238281 176.0625 C 132.578125 227.441406 115.71875 268.445312 115.71875 291.71875 C 115.71875 331.574219 148.144531 364 188 364 C 227.855469 364 260.28125 331.574219 260.28125 291.71875 C 260.28125 268.445312 243.421875 227.445312 212.761719 176.0625 Z M 212.761719 176.0625 "/>
<path style=" stroke:none;fill-rule:nonzero;fill:rgb(67%,67%,67%);fill-opacity:1;" d="M 182 6 L 194 6 L 194 92.0625 L 182 92.0625 Z M 182 6 "/>
<path style=" stroke:none;fill-rule:nonzero;fill:rgb(11%,11%,11%);fill-opacity:1;" d="M 225.25 173.59375 C 230.578125 170.460938 234.164062 164.675781 234.164062 158.0625 C 234.164062 153.457031 232.421875 149.25 229.566406 146.0625 C 232.425781 142.875 234.164062 138.667969 234.164062 134.0625 C 234.164062 129.457031 232.421875 125.25 229.566406 122.0625 C 232.425781 118.875 234.164062 114.667969 234.164062 110.0625 C 234.164062 100.136719 226.089844 92.0625 216.164062 92.0625 L 206 92.0625 L 206 6 C 206 2.6875 203.3125 0 200 0 C 196.6875 0 194 2.6875 194 6 L 194 92.0625 L 182 92.0625 L 182 6 C 182 2.6875 179.3125 0 176 0 C 172.6875 0 170 2.6875 170 6 L 170 92.0625 L 159.832031 92.0625 C 149.90625 92.0625 141.832031 100.136719 141.832031 110.0625 C 141.832031 114.667969 143.574219 118.875 146.429688 122.0625 C 143.574219 125.25 141.832031 129.457031 141.832031 134.0625 C 141.832031 138.667969 143.574219 142.875 146.429688 146.0625 C 143.574219 149.25 141.832031 153.457031 141.832031 158.0625 C 141.832031 164.675781 145.421875 170.464844 150.746094 173.59375 C 128.417969 211.464844 103.71875 260.429688 103.71875 291.71875 C 103.71875 338.191406 141.527344 376 188 376 C 234.472656 376 272.28125 338.191406 272.28125 291.71875 C 272.28125 260.429688 247.582031 211.464844 225.25 173.59375 Z M 188 364 C 148.144531 364 115.71875 331.574219 115.71875 291.71875 C 115.71875 268.445312 132.578125 227.441406 163.238281 176.0625 L 177.277344 176.0625 C 160.65625 203.570312 127.71875 261.863281 127.71875 291.71875 C 127.71875 324.957031 154.761719 352 188 352 C 221.238281 352 248.28125 324.957031 248.28125 291.71875 C 248.28125 265.371094 222.5 216.824219 207.128906 190.234375 C 205.46875 187.363281 201.800781 186.382812 198.929688 188.042969 C 196.058594 189.722656 195.085938 193.378906 196.738281 196.238281 C 221.871094 239.71875 236.28125 274.519531 236.28125 291.71875 C 236.28125 318.339844 214.625 340 188 340 C 161.375 340 139.71875 318.339844 139.71875 291.71875 C 139.71875 271.726562 159.449219 227.578125 191.339844 176.0625 L 212.761719 176.0625 C 243.421875 227.445312 260.28125 268.445312 260.28125 291.71875 C 260.28125 331.574219 227.855469 364 188 364 Z M 153.832031 110.0625 C 153.832031 106.753906 156.523438 104.0625 159.832031 104.0625 L 216.164062 104.0625 C 219.472656 104.0625 222.164062 106.753906 222.164062 110.0625 C 222.164062 113.371094 219.472656 116.0625 216.164062 116.0625 L 191.832031 116.0625 C 188.519531 116.0625 185.832031 118.75 185.832031 122.0625 C 185.835938 125.378906 188.519531 128.0625 191.832031 128.0625 L 216.164062 128.0625 C 219.472656 128.0625 222.164062 130.753906 222.164062 134.0625 C 222.164062 137.371094 219.472656 140.0625 216.164062 140.0625 L 159.832031 140.0625 C 156.523438 140.0625 153.832031 137.371094 153.832031 134.0625 C 153.832031 130.753906 156.523438 128.0625 159.832031 128.0625 L 167.832031 128.0625 C 171.148438 128.0625 173.832031 125.378906 173.832031 122.0625 C 173.832031 118.75 171.148438 116.0625 167.832031 116.0625 L 159.832031 116.0625 C 156.527344 116.0625 153.832031 113.371094 153.832031 110.0625 Z M 159.832031 152.0625 L 216.164062 152.0625 C 219.472656 152.0625 222.164062 154.753906 222.164062 158.0625 C 222.164062 161.371094 219.472656 164.0625 216.164062 164.0625 L 159.832031 164.0625 C 156.523438 164.0625 153.832031 161.371094 153.832031 158.0625 C 153.832031 154.753906 156.527344 152.0625 159.832031 152.0625 Z M 159.832031 152.0625 "/>
</g>
</svg>
