<?xml version="1.0" encoding="UTF-8"?>
<svg xmlns="http://www.w3.org/2000/svg" xmlns:xlink="http://www.w3.org/1999/xlink" width="409.600006pt" height="409.600006pt" viewBox="0 0 409.600006 409.600006" version="1.1">
<g id="surface1">
<path style=" stroke:none;fill-rule:nonzero;fill:rgb(74%,74%,74%);fill-opacity:1;" d="M 234.597656 108.089844 C 241.722656 102.027344 248.835938 95.976562 254.90625 90.8125 C 238.789062 87.046875 217.300781 82.019531 204.804688 79.027344 C 181.332031 84.6875 165.496094 88.394531 154.730469 90.875 C 164.574219 99.246094 180.132812 112.480469 204.796875 133.457031 Z M 234.597656 108.089844 "/>
<path style=" stroke:none;fill-rule:nonzero;fill:rgb(95%,95%,95%);fill-opacity:1;" d="M 207.375 56.542969 L 266.054688 70.605469 C 259.507812 42.847656 234.527344 22.128906 204.796875 22.128906 C 175.050781 22.128906 150.058594 42.875 143.53125 70.660156 C 159.136719 66.917969 183.777344 60.988281 202.207031 56.546875 C 203.90625 56.140625 205.675781 56.136719 207.375 56.542969 Z M 207.375 56.542969 "/>
<path style=" stroke:none;fill-rule:nonzero;fill:rgb(74%,74%,74%);fill-opacity:1;" d="M 204.796875 159.042969 C 141.820312 159.042969 90.585938 210.28125 90.585938 273.257812 C 90.585938 336.234375 141.820312 387.472656 204.796875 387.472656 C 267.777344 387.472656 319.011719 336.234375 319.011719 273.257812 C 319.011719 210.28125 267.777344 159.042969 204.796875 159.042969 Z M 204.796875 364.085938 C 154.714844 364.085938 113.96875 323.339844 113.96875 273.257812 C 113.96875 223.175781 154.714844 182.429688 204.796875 182.429688 C 254.878906 182.429688 295.628906 223.175781 295.628906 273.257812 C 295.628906 323.339844 254.882812 364.085938 204.796875 364.085938 Z M 204.796875 364.085938 "/>
<path style=" stroke:none;fill-rule:nonzero;fill:rgb(0%,0%,0%);fill-opacity:1;" d="M 231.726562 139.59375 C 253.738281 120.855469 281.605469 97.148438 285.398438 93.949219 C 288.117188 91.933594 289.878906 88.699219 289.878906 85.054688 C 289.878906 84.773438 289.871094 84.488281 289.851562 84.210938 C 289.390625 37.699219 251.414062 0 204.796875 0 C 157.898438 0 119.742188 38.15625 119.742188 85.054688 C 119.742188 88.320312 121.1875 91.414062 123.675781 93.511719 C 124.472656 94.1875 156.222656 121.191406 177.859375 139.59375 C 115.542969 152.132812 68.457031 207.296875 68.457031 273.257812 C 68.457031 348.4375 129.621094 409.601562 204.800781 409.601562 C 279.976562 409.601562 341.140625 348.4375 341.140625 273.257812 C 341.140625 207.296875 294.054688 152.125 231.726562 139.59375 Z M 204.796875 387.472656 C 141.820312 387.472656 90.585938 336.234375 90.585938 273.257812 C 90.585938 210.28125 141.820312 159.042969 204.796875 159.042969 C 267.777344 159.042969 319.011719 210.28125 319.011719 273.257812 C 319.011719 336.234375 267.777344 387.472656 204.796875 387.472656 Z M 143.535156 70.660156 C 150.058594 42.875 175.054688 22.128906 204.796875 22.128906 C 234.527344 22.128906 259.503906 42.847656 266.050781 70.605469 L 207.375 56.542969 C 205.675781 56.136719 203.902344 56.136719 202.207031 56.546875 C 183.78125 60.988281 159.140625 66.917969 143.535156 70.660156 Z M 204.808594 79.027344 C 217.300781 82.019531 238.789062 87.046875 254.90625 90.8125 C 248.835938 95.976562 241.722656 102.027344 234.597656 108.089844 L 204.796875 133.453125 C 180.136719 112.476562 164.574219 99.246094 154.734375 90.875 C 165.496094 88.394531 181.335938 84.6875 204.808594 79.027344 Z M 204.808594 79.027344 "/>
<path style=" stroke:none;fill-rule:nonzero;fill:rgb(0%,0%,0%);fill-opacity:1;" d="M 204.796875 182.429688 C 154.714844 182.429688 113.96875 223.175781 113.96875 273.257812 C 113.96875 323.339844 154.714844 364.085938 204.796875 364.085938 C 254.878906 364.085938 295.628906 323.339844 295.628906 273.257812 C 295.628906 223.175781 254.882812 182.429688 204.796875 182.429688 Z M 204.796875 341.957031 C 166.917969 341.957031 136.097656 311.140625 136.097656 273.257812 C 136.097656 235.375 166.917969 204.558594 204.796875 204.558594 C 242.679688 204.558594 273.5 235.375 273.5 273.257812 C 273.5 311.140625 242.679688 341.957031 204.796875 341.957031 Z M 204.796875 341.957031 "/>
</g>
</svg>
