<?xml version="1.0" encoding="iso-8859-1"?>
<!-- Generator: Adobe Illustrator 19.0.0, SVG Export Plug-In . SVG Version: 6.00 Build 0)  -->
<svg version="1.1" id="Layer_1" xmlns="http://www.w3.org/2000/svg" xmlns:xlink="http://www.w3.org/1999/xlink" x="0px" y="0px"
	 viewBox="0 0 512 512" style="enable-background:new 0 0 512 512;" xml:space="preserve">
<path style="fill:#86D3D6;" d="M293.246,135.114c8.907-7.579,17.799-15.144,25.388-21.597
	c-20.147-4.709-47.007-10.991-62.626-14.732c-29.342,7.074-49.138,11.709-62.593,14.809c12.302,10.464,31.752,27.005,62.579,53.225
	L293.246,135.114z"/>
<path style="fill:#E7F6F7;" d="M259.219,70.68l73.348,17.576C324.383,53.56,293.16,27.66,255.998,27.66
	c-37.184,0-68.424,25.935-76.582,60.665c19.507-4.676,50.308-12.089,73.342-17.64C254.881,70.174,257.096,70.172,259.219,70.68z"/>
<path style="fill:#FFB919;" d="M255.998,198.805c-78.722,0-142.767,64.045-142.767,142.767S177.276,484.34,255.998,484.34
	s142.767-64.045,142.767-142.767S334.722,198.805,255.998,198.805z M255.998,455.108c-62.603,0-113.536-50.933-113.536-113.536
	s50.933-113.536,113.536-113.536s113.536,50.933,113.536,113.536S318.602,455.108,255.998,455.108z"/>
<path d="M289.657,174.49c27.517-23.421,62.349-53.055,67.091-57.052c3.4-2.521,5.603-6.562,5.603-11.119
	c0-0.354-0.012-0.707-0.038-1.056C361.739,47.126,314.269,0,255.998,0C197.374,0,149.68,47.695,149.68,106.318
	c0,4.082,1.803,7.951,4.915,10.573c0.997,0.844,40.684,34.599,67.731,57.6c-77.899,15.676-136.753,84.631-136.753,167.081
	C85.572,435.546,162.027,512,256,512s170.428-76.454,170.428-170.428C426.426,259.12,367.567,190.158,289.657,174.49z
	 M255.998,484.34c-78.722,0-142.767-64.045-142.767-142.767s64.045-142.767,142.767-142.767s142.767,64.045,142.767,142.767
	S334.722,484.34,255.998,484.34z M179.418,88.326c8.156-34.731,39.398-60.665,76.58-60.665c37.16,0,68.384,25.9,76.567,60.596
	L259.217,70.68c-2.121-0.508-4.337-0.507-6.459,0.005C229.726,76.236,198.925,83.649,179.418,88.326z M256.009,98.784
	c15.618,3.741,42.477,10.025,62.626,14.732c-7.589,6.453-16.48,14.018-25.388,21.597l-37.251,31.704
	c-30.827-26.22-50.277-42.761-62.579-53.225C206.871,110.493,226.668,105.857,256.009,98.784z"/>
<path d="M255.998,228.037c-62.603,0-113.536,50.933-113.536,113.536s50.933,113.536,113.536,113.536s113.536-50.933,113.536-113.536
	S318.602,228.037,255.998,228.037z M255.998,427.448c-47.352,0-85.876-38.524-85.876-85.876s38.524-85.876,85.876-85.876
	s85.876,38.524,85.876,85.876S303.351,427.448,255.998,427.448z"/>
<g>
</g>
<g>
</g>
<g>
</g>
<g>
</g>
<g>
</g>
<g>
</g>
<g>
</g>
<g>
</g>
<g>
</g>
<g>
</g>
<g>
</g>
<g>
</g>
<g>
</g>
<g>
</g>
<g>
</g>
</svg>
